<?xml version="1.0" encoding="UTF-8" standalone="no"?>
<svg
   xmlns:dc="http://purl.org/dc/elements/1.1/"
   xmlns:cc="http://creativecommons.org/ns#"
   xmlns:rdf="http://www.w3.org/1999/02/22-rdf-syntax-ns#"
   xmlns:svg="http://www.w3.org/2000/svg"
   xmlns="http://www.w3.org/2000/svg"
   xmlns:sodipodi="http://sodipodi.sourceforge.net/DTD/sodipodi-0.dtd"
   xmlns:inkscape="http://www.inkscape.org/namespaces/inkscape"
   version="1.1"
   x="0px"
   y="0px"
   width="100.046"
   height="97.565002"
   viewBox="-346 256 100.046 97.565002"
   enable-background="new -346 256 100 100"
   xml:space="preserve"
   id="svg3185"
   inkscape:version="0.48.4 r9939"
   sodipodi:docname="icon_17914.svg"><metadata
     id="metadata3211"><rdf:RDF><cc:Work
         rdf:about=""><dc:format>image/svg+xml</dc:format><dc:type
           rdf:resource="http://purl.org/dc/dcmitype/StillImage" /><dc:title></dc:title></cc:Work></rdf:RDF></metadata><defs
     id="defs3209" /><sodipodi:namedview
     pagecolor="#ffffff"
     bordercolor="#666666"
     borderopacity="1"
     objecttolerance="10"
     gridtolerance="10"
     guidetolerance="10"
     inkscape:pageopacity="0"
     inkscape:pageshadow="2"
     inkscape:window-width="1186"
     inkscape:window-height="964"
     id="namedview3207"
     showgrid="false"
     fit-margin-top="0"
     fit-margin-left="0"
     fit-margin-right="0"
     fit-margin-bottom="0"
     inkscape:zoom="6.675088"
     inkscape:cx="51.822365"
     inkscape:cy="49.043416"
     inkscape:window-x="675"
     inkscape:window-y="215"
     inkscape:window-maximized="0"
     inkscape:current-layer="svg3185" /><g
     id="Layer_1"
     transform="translate(0,-2.435)" /><g
     id="Layer_2"
     transform="translate(0,-2.435)"><path
       d="m -310.557,356 c -1.107,0 -2.005,-0.898 -2.005,-2.005 v -16.93 c 0,-0.411 0.126,-0.812 0.36,-1.148 l 25.504,-36.57 c 1.878,-3.362 5.84,-4.869 8.962,-4.869 h 29.777 c 1.106,0 2.005,0.898 2.005,2.005 0,1.107 -0.898,2.005 -2.005,2.005 h -29.777 c -1.9,0 -4.429,0.898 -5.49,2.87 -0.036,0.068 -0.078,0.133 -0.121,0.195 l -25.205,36.143 v 16.3 c 0,1.106 -0.897,2.004 -2.005,2.004 l 0,0 z"
       id="path3189"
       inkscape:connector-curvature="0" /><g
       id="g3191"><path
         d="m -272.521,291.298 c -0.091,0 -0.183,-0.008 -0.273,-0.026 -1.6,-0.301 -4.564,-1.962 -4.34,-6.088 0.124,-2.258 1.638,-3.36 2.747,-4.164 0.942,-0.686 1.301,-0.995 1.315,-1.532 0.058,-2.226 -1.85,-3.449 -1.869,-3.46 -0.69,-0.419 -0.909,-1.321 -0.489,-2.011 0.419,-0.69 1.317,-0.913 2.011,-0.49 0.137,0.084 3.376,2.099 3.274,6.039 -0.056,2.032 -1.481,3.068 -2.523,3.824 -0.983,0.714 -1.498,1.124 -1.544,1.954 -0.142,2.625 1.874,3.037 1.96,3.053 0.794,0.15 1.317,0.916 1.167,1.709 -0.134,0.703 -0.748,1.192 -1.436,1.192 l 0,0 z"
         id="path3193"
         inkscape:connector-curvature="0" /><path
         d="m -263.209,291.298 c -0.092,0 -0.184,-0.008 -0.275,-0.026 -1.6,-0.301 -4.565,-1.962 -4.34,-6.088 0.123,-2.258 1.64,-3.359 2.746,-4.162 0.942,-0.686 1.301,-0.995 1.314,-1.532 0.058,-2.219 -1.798,-3.417 -1.877,-3.467 -0.681,-0.429 -0.893,-1.329 -0.469,-2.012 0.422,-0.683 1.311,-0.9 1.999,-0.484 0.138,0.085 3.377,2.1 3.273,6.04 -0.052,2.031 -1.48,3.067 -2.521,3.823 -0.983,0.714 -1.5,1.125 -1.544,1.955 -0.144,2.624 1.875,3.036 1.961,3.052 0.794,0.15 1.316,0.916 1.167,1.709 -0.132,0.702 -0.745,1.192 -1.434,1.192 l 0,0 z"
         id="path3195"
         inkscape:connector-curvature="0" /><path
         d="m -253.939,291.298 c -0.092,0 -0.181,-0.008 -0.272,-0.026 -1.6,-0.301 -4.567,-1.962 -4.343,-6.088 0.124,-2.258 1.64,-3.36 2.746,-4.163 0.943,-0.686 1.301,-0.995 1.316,-1.532 0.06,-2.227 -1.849,-3.448 -1.868,-3.46 -0.69,-0.42 -0.911,-1.321 -0.491,-2.011 0.419,-0.691 1.319,-0.912 2.01,-0.492 0.139,0.085 3.381,2.1 3.275,6.041 -0.053,2.031 -1.479,3.066 -2.521,3.823 -0.983,0.714 -1.498,1.125 -1.544,1.955 -0.134,2.47 1.627,2.979 1.981,3.056 0.781,0.17 1.293,0.939 1.134,1.724 -0.142,0.692 -0.743,1.173 -1.423,1.173 l 0,0 z"
         id="path3197"
         inkscape:connector-curvature="0" /></g><path
       d="m -252.022,301.248 -23.512,0 c -2.38,0 -5.712,1.849 -6.937,3.796 l -18.79,26.743 c -0.425,0.645 -0.648,1.386 -0.683,2.274 -0.056,1.516 0.355,2.739 1.22,3.637 1.393,1.445 3.403,1.445 4.482,1.445 l 44.218,0 c 3.702,0 5.913,-2.209 5.913,-5.909 l 0,-25.034 c 0.002,-4.094 -2.43,-6.952 -5.911,-6.952 z m 1.903,11.815 c -1.857,0.511 -3.297,2.169 -3.297,2.169 l -15.365,19.899 c -2.65052,0.058 -21.75484,0.002 -27.42,0.002 l -0.039,0 c -0.919,0 -1.456,-0.073 -1.596,-0.218 -0.025,-0.025 -0.117,-0.225 -0.1,-0.702 0.004,-0.128 0.019,-0.192 0.009,-0.192 -0.002,0 -0.005,0.003 -0.009,0.007 l 18.802,-26.762 c 0.532,-0.844 2.618,-2.007 3.6,-2.007 l 23.512,0 c 1.812,0 1.903,2.451 1.903,2.941 z"
       id="path3201"
       inkscape:connector-curvature="0"
       sodipodi:nodetypes="ssccccssscsccccsccsccsssc" /><path
       d="m -290.952,347.759 h -8.912 c -1.107,0 -2.005,-0.897 -2.005,-2.004 0,-1.108 0.897,-2.005 2.005,-2.005 h 8.912 c 1.107,0 2.005,0.896 2.005,2.005 0,1.106 -0.898,2.004 -2.005,2.004 l 0,0 z"
       id="path3203"
       inkscape:connector-curvature="0" /><path
       d="m -288.53,289.509 v -4.678 h -11.152 c -0.366,-3.174 -1.589,-6.084 -3.42,-8.515 l 7.811,-7.811 -3.307,-3.308 -7.785,7.786 c -2.425,-1.881 -5.349,-3.142 -8.542,-3.544 v -11.004 h -4.678 v 11.046 c -3.154,0.448 -6.039,1.726 -8.424,3.62 l -7.903,-7.903 -3.308,3.308 7.969,7.968 c -1.766,2.398 -2.944,5.251 -3.302,8.358 H -346 v 4.678 h 11.524 c 0.459,3.016 1.681,5.781 3.475,8.09 l -8.236,8.236 3.308,3.308 8.263,-8.262 c 2.314,1.743 5.064,2.924 8.063,3.35 v 11.675 h 4.678 v -11.633 c 3.037,-0.384 5.828,-1.542 8.181,-3.275 l 8.145,8.146 3.308,-3.308 -8.079,-8.078 c 1.859,-2.342 3.124,-5.164 3.594,-8.249 h 11.246 z m -28.627,10.185 c -7.105,0 -12.865,-5.759 -12.865,-12.865 0,-7.106 5.759,-12.866 12.865,-12.866 7.106,0 12.865,5.76 12.865,12.866 0,7.106 -5.759,12.865 -12.865,12.865 z"
       id="path3205"
       inkscape:connector-curvature="0" /></g><g
     transform="matrix(0.6083456,0.47158645,-0.47158645,0.6083456,-272.99532,299.83131)"
     id="data"><path
       style="fill:#000000"
       inkscape:connector-curvature="0"
       d="M 16,0 C 9.256,0 2,2.033 2,6.5 v 19 c 0,4.465 7.256,6.5 14,6.5 6.743,0 14,-2.035 14,-6.5 V 6.5 C 30,2.033 22.742,0 16,0 z M 28,25.5 C 28,27.984 22.627,30 16,30 9.372,30 4,27.984 4,25.5 V 21.764 C 6.066,23.893 11.05,25 16,25 c 4.95,0 9.934,-1.107 12,-3.236 V 25.5 z m 0,-6 H 27.996 C 27.996,19.51 28,19.521 28,19.531 28,22 22.627,24 16,24 9.373,24 4,22 4,19.531 4,19.521 4.004,19.51 4.004,19.5 H 4 V 15.764 C 6.066,17.893 11.05,19 16,19 c 4.95,0 9.934,-1.107 12,-3.236 V 19.5 z m 0,-6 H 27.996 C 27.996,13.51 28,13.521 28,13.531 28,16 22.627,18 16,18 9.373,18 4,16 4,13.531 4,13.521 4.004,13.51 4.004,13.5 H 4 V 10.064 C 6.621,12.061 11.425,13 16,13 c 4.575,0 9.379,-0.939 12,-2.936 V 13.5 z M 16,11 C 9.372,11 4,8.984 4,6.5 4,4.014 9.372,2 16,2 22.627,2 28,4.014 28,6.5 28,8.984 22.627,11 16,11 z"
       id="path3073" /><circle
       d="m 26,26 c 0,0.552285 -0.447715,1 -1,1 -0.552285,0 -1,-0.447715 -1,-1 0,-0.552285 0.447715,-1 1,-1 0.552285,0 1,0.447715 1,1 z"
       style="fill:#000000"
       sodipodi:ry="1"
       sodipodi:rx="1"
       sodipodi:cy="26"
       sodipodi:cx="25"
       cx="25"
       cy="26"
       r="1"
       id="circle3075" /><circle
       d="m 26,20 c 0,0.552285 -0.447715,1 -1,1 -0.552285,0 -1,-0.447715 -1,-1 0,-0.552285 0.447715,-1 1,-1 0.552285,0 1,0.447715 1,1 z"
       style="fill:#000000"
       sodipodi:ry="1"
       sodipodi:rx="1"
       sodipodi:cy="20"
       sodipodi:cx="25"
       cx="25"
       cy="20"
       r="1"
       id="circle3077" /><circle
       d="m 26,14 c 0,0.552285 -0.447715,1 -1,1 -0.552285,0 -1,-0.447715 -1,-1 0,-0.552285 0.447715,-1 1,-1 0.552285,0 1,0.447715 1,1 z"
       style="fill:#000000"
       sodipodi:ry="1"
       sodipodi:rx="1"
       sodipodi:cy="14"
       sodipodi:cx="25"
       cx="25"
       cy="14"
       r="1"
       id="circle3079" /></g></svg>